<svg width="42" height="42" viewBox="0 0 42 42" fill="none" xmlns="http://www.w3.org/2000/svg">
<path d="M7 33.25V29.75H10.5V17.5C10.5 15.0792 11.2292 12.9354 12.6875 11.0687C14.1458 9.17292 16.0417 7.93333 18.375 7.35V6.125C18.375 5.39583 18.6229 4.78333 19.1188 4.2875C19.6438 3.7625 20.2708 3.5 21 3.5C21.7292 3.5 22.3417 3.7625 22.8375 4.2875C23.3625 4.78333 23.625 5.39583 23.625 6.125V7.35C25.9583 7.93333 27.8542 9.17292 29.3125 11.0687C30.7708 12.9354 31.5 15.0792 31.5 17.5V29.75H35V33.25H7ZM21 38.5C20.0375 38.5 19.2063 38.1646 18.5063 37.4937C17.8354 36.7937 17.5 35.9625 17.5 35H24.5C24.5 35.9625 24.15 36.7937 23.45 37.4937C22.7792 38.1646 21.9625 38.5 21 38.5ZM14 29.75H28V17.5C28 15.575 27.3146 13.9271 25.9438 12.5562C24.5729 11.1854 22.925 10.5 21 10.5C19.075 10.5 17.4271 11.1854 16.0563 12.5562C14.6854 13.9271 14 15.575 14 17.5V29.75Z" fill="white"/>
</svg>
