<svg width="24" height="25" viewBox="0 0 24 25" fill="none" xmlns="http://www.w3.org/2000/svg">
<rect width="24" height="25" rx="12" fill="#EEEEEF"/>
<path d="M18.2858 19.4941V17.8572C18.2858 16.9889 17.9547 16.1562 17.3653 15.5423C16.7759 14.9283 15.9765 14.5834 15.1429 14.5834H8.85721C8.02367 14.5834 7.22428 14.9283 6.63488 15.5423C6.04548 16.1562 5.71436 16.9889 5.71436 17.8572V19.4941M15.1429 8.03577C15.1429 9.84385 13.7358 11.3096 12.0001 11.3096C10.2643 11.3096 8.85721 9.84385 8.85721 8.03577C8.85721 6.2277 10.2643 4.76196 12.0001 4.76196C13.7358 4.76196 15.1429 6.2277 15.1429 8.03577Z" stroke="black" stroke-width="1.54688" stroke-linecap="round" stroke-linejoin="round"/>
</svg>
